<?xml version="1.0" encoding="utf-8"?>
<!-- Generator: Adobe Illustrator 25.0.1, SVG Export Plug-In . SVG Version: 6.00 Build 0)  -->
<svg version="1.1" id="Layer_1" xmlns="http://www.w3.org/2000/svg" xmlns:xlink="http://www.w3.org/1999/xlink" x="0px" y="0px"
	 viewBox="0 0 791.9 539.5" style="enable-background:new 0 0 791.9 539.5;" xml:space="preserve">
<style type="text/css">
	.st0{fill:#C2D9F0;}
	.st1{fill:#4B4065;}
	.st2{fill:#FFFFFF;}
	.st3{fill:#ED4F2E;}
	.st4{fill:#495894;}
	.st5{fill:#FFFFFF;stroke:#B9C6E4;stroke-miterlimit:10;}
	.st6{fill:#C2D9F0;stroke:#495894;stroke-miterlimit:10;}
	.st7{fill:none;stroke:#495894;stroke-miterlimit:10;}
	.st8{opacity:0.21;fill:#ED4F2E;enable-background:new    ;}
</style>
<g id="Layer_1-2">
	<path class="st0" d="M331.8,343.6c0.9-0.9,38-18.9,38-18.9l6.2-31l40.5,1.4l2.9,30.2l45.6,20.3"/>
	<path class="st1" d="M418.7,317.1l-2.1-21.9l-40.5-1.4l-1.2,6.1c4.2,5.4,9.3,10.1,15,13.8c5.5,3.5,11.7,6.2,18.2,6.1
		C411.8,319.7,415.4,318.8,418.7,317.1z"/>
	<path class="st0" d="M392.2,210c13.2-2,27.2,2.8,36.9,11.9c12.1,11.3,14.4,26.9,11.9,42.8c-1.5,9.9-5.8,19.6-13.1,26.5
		c-9.6,9.1-24.1,12.5-37,9.5s-24-12.3-30.2-24c-3.8-7.4-5.8-15.6-6-23.9c-0.1-7.8,1.5-12.9,5.2-19.4
		C366.9,221.3,378.4,212.1,392.2,210z"/>
	<path class="st0" d="M361.7,253c-2.2-4-7.9-5.4-11.9-3.2c-4.1,2.3-6.2,7-5.2,11.6c1.1,4.5,4.5,8.1,9,9.4c4.4,1.3,9.2,0.6,13.2-1.7"
		/>
	<path class="st2" d="M371.7,246.8c9.2-6.2,21.3-6.5,30.7-0.6c-3.1,4.6-8.2,7.6-13.7,8C383.3,254.6,375.6,252.6,371.7,246.8z"/>
	<path class="st0" d="M437.9,232.9c1.6-1.5,3.8-1.9,5.8-1c1.9,0.9,3.4,2.4,4.4,4.3c4.2,7.9-0.4,17.5-8.5,20.5"/>
	<path class="st1" d="M372.1,247.4c9-6.1,20.7-6.3,30-0.6c0.8,0.5,1.6-0.8,0.8-1.3c-9.7-6-22-5.7-31.5,0.6
		C370.6,246.7,371.4,248,372.1,247.4L372.1,247.4z"/>
	<path class="st1" d="M381,242.9c-0.1,4.9,3.8,8.9,8.6,9c4.3,0.1,8-3,8.8-7.2C393,242.1,386.9,241.5,381,242.9z"/>
	<path class="st1" d="M409.1,239.4c2.2-0.2,4,1.5,4.2,3.6c0.1,0.9-0.2,1.8-0.7,2.5c-0.5,0.8,0.8,1.6,1.3,0.8c1.7-2.5,1-5.8-1.5-7.5
		c-1-0.6-2.1-1-3.3-0.9C408.1,237.9,408.1,239.4,409.1,239.4z"/>
	<path class="st3" d="M427.4,253c-6.2-1.6-12.8-0.4-18.1,3.3c-1.5,1-2.8,2.3-4,3.6c-0.6,0.7,0,2,1,1.7c7-2.2,14.1-4.4,21.1-6.6
		c1.2-0.4,0.7-2.3-0.5-1.9c-7,2.2-14.1,4.4-21.1,6.6l1,1.7c5-5.8,12.8-8.3,20.2-6.4c0.5,0.1,1-0.3,1.1-0.9
		C428.1,253.6,427.9,253.2,427.4,253z"/>
	<path class="st4" d="M361.2,276.7c1.8-2.3,3.5-4.8,5.4-7.1c-2.3,1.2-4.9,1.9-7.5,2C359.4,273.4,360.2,275.1,361.2,276.7z"/>
	<path class="st1" d="M360,250c0.1,1.6,2.7,2,3.9,0.8s1.2-3,1.2-4.6s0-3.4,1-4.7c1.4-1.6,3.8-1.7,5.9-1.8
		c12.4-0.8,23.7-10.9,25.7-23.2c3.5,6.1,9.5,11.3,16.3,12.9s13.6-0.5,17.4-6.4c-8.2-8.5-19.2-14-31-15.3c-12-1.6-24.8,1.2-34.3,8.8
		s-15,20.3-12.8,32.2C355.6,249.2,357.8,249.6,360,250z"/>
	<path class="st1" d="M401.7,213.3c0.2-8.2-5.4-15.6-12.4-19.9c-7.2-4.5-16-6-24.3-4c-8.1,2.1-15.3,8.3-18,16.3s-0.6,17.6,5.6,23.2
		s16.4,6.7,23.4,2"/>
	<path class="st1" d="M354.1,211.3c-9-10.2-21.6-17.9-35.2-18.3s-27.8,7.3-32.6,20c-4.1,11.1-0.5,24.3,8,32.4
		c8.5,8.1,21.3,11.2,32.9,8.9c11.6-2.3,21.8-9.8,28.6-19.4"/>
	<path class="st2" d="M435.8,230c-5,0.3-9.5,3-12.1,7.2c2,2.7,5,4.5,8.3,4.8c2.9,0.2,5.8-0.7,8.1-2.6C439,235,438.1,233.8,435.8,230
		z"/>
	<path class="st1" d="M303.1,249.4c-13.6-5.8-29.3,0.6-35,14.2c-5.8,13.6,0.6,29.3,14.2,35c2.4,1,5,1.7,7.6,2
		c7.5,0.7,14.9-1.6,20.8-6.3c5.8-4.7,9.9-11.3,11.5-18.6c2-8.9,0.6-18.3-4-26.2"/>
	<path class="st1" d="M439.6,237.7c-2.1,2.4-5.5,3.2-8.4,2c-2.7-1.4-4-4.5-3.3-7.4c2.6-1.2,5.5-1.9,8.3-2
		C437.4,232.7,438.9,235.3,439.6,237.7z"/>
	<path class="st1" d="M274.5,323.5c2.1,7.3,9.9,11.9,17.5,12.3c6.5,0.4,12.9-2.1,17.5-6.8c9.6-10.4,3.3-28.6-10.8-30.8
		C286.3,296.3,270.9,310.9,274.5,323.5z"/>
	<path class="st1" d="M376.7,236.1c-0.2,0-0.3-0.1-0.4-0.2c-0.1-0.2-0.1-0.4,0.1-0.6c2.8-2.7,6.6-4.2,10.5-4.2
		c2.7,0,5.4,0.7,7.7,2.2c0.2,0.1,0.3,0.4,0.2,0.6c-0.1,0.2-0.3,0.3-0.5,0.3h-0.1c-1.2-0.2-2.5-0.3-3.7-0.3
		C385.9,234,381.2,234.7,376.7,236.1C376.8,236,376.7,236,376.7,236.1z"/>
	<path class="st1" d="M386.8,231.5c2.6,0,5.2,0.7,7.4,2.1c-1.2-0.2-2.5-0.3-3.8-0.3c-4.7,0.1-9.4,0.9-13.8,2.2
		C379.4,232.9,383,231.5,386.8,231.5 M386.8,230.5c-4.1,0-8,1.5-10.9,4.3c-0.3,0.3-0.4,0.8-0.2,1.2c0.2,0.3,0.5,0.5,0.9,0.5
		c0.1,0,0.2,0,0.3,0c4.4-1.4,9-2.1,13.5-2.2c1.2,0,2.4,0.1,3.6,0.3h0.1c0.6,0,1-0.4,1-1c0-0.3-0.2-0.7-0.5-0.9
		C392.4,231.3,389.6,230.5,386.8,230.5L386.8,230.5z"/>
	<polygon class="st0" points="265.5,341.8 265.5,405.2 266,405.5 273.1,345.7 	"/>
	<path class="st5" d="M236.1,496h331.1l0,0l0,0c0,9.4-7.7,17.1-17.1,17.1l0,0H253.2C243.8,513.1,236.1,505.4,236.1,496L236.1,496
		L236.1,496L236.1,496z"/>
	<path class="st4" d="M280.4,342.1h247.2c7.9,0,14.3,6.4,14.3,14.3l0,0V513l0,0H266.1l0,0V356.4
		C266.1,348.5,272.5,342.1,280.4,342.1L280.4,342.1z"/>
	<circle class="st2" cx="403.6" cy="426.4" r="16.2"/>
	<path class="st1" d="M424.3,237.5c2.7-4.2,7.4-6.8,12.4-6.8c0.4,0,0.8-0.3,0.8-0.8s-0.3-0.8-0.8-0.8c-5.6,0-10.7,2.9-13.7,7.6
		C422.5,237.6,423.8,238.3,424.3,237.5z"/>
	<path class="st1" d="M442,255.2c-0.7-1.6-1.3-2.6-2.5-2.6c-2.5-0.2-5.9,7.4-2.3,16.1l1.9,4.5c0.9-2.8,1.6-5.6,2-8.4
		C441.6,261.6,441.9,258.4,442,255.2z"/>
	<path class="st0" d="M494.6,342.1c-0.4-1.2-44.8-75.5-47.7-82.6s-3.1-11-5.6-11.2s-5.9,7.4-2.3,16.1c3.6,8.7,7.1,17.1,7.1,17.1
		s-3.4,2.5-2.4,5.8c0,0-5.2-2-7,2.9c-0.5,1.8-0.3,3.8,0.7,5.4c0,0-6.8-2.5-9.5,2.5c-2,3.8-1.7,15-1.5,20c0.1,2.2,1.1,4.3,2.8,5.8
		c1.9,1.6,4.8,2.2,7.9-2.9l11.1,21.1L494.6,342.1L494.6,342.1z"/>
	<path class="st6" d="M465.2,300.7l-12.9-18.8c-1.2-1-2.7-1.3-4.2-0.9"/>
	<line class="st7" x1="443.7" y1="287.4" x2="456.8" y2="308.8"/>
	<line class="st7" x1="437.4" y1="295.7" x2="448.3" y2="314.8"/>
	<line class="st7" x1="431.2" y1="307" x2="438.7" y2="323.9"/>
	<path class="st0" d="M483.1,322.6l-6-23.7c-0.8-3-1.6-6-3.6-8.4s-7.2-3.4-10.2-1"/>
	<circle class="st8" cx="383.7" cy="270.3" r="10.9"/>
</g>
</svg>
